<?xml version="1.0" ?><!-- Uploaded to: SVG Repo, www.svgrepo.com, Generator: SVG Repo Mixer Tools -->
<svg width="800px" height="800px" viewBox="0 0 64 64" id="filled" xmlns="http://www.w3.org/2000/svg"><defs><style>.cls-1{fill:#ffffff;}.cls-1,.cls-2,.cls-3,.cls-4,.cls-5{stroke:#000000;stroke-linecap:round;stroke-linejoin:round;stroke-width:2px;}.cls-2{fill:#004fe3;}.cls-3{fill:#bdc3c7;}.cls-4{fill:#81dee3;}.cls-5{fill:none;}</style></defs><title/><rect class="cls-1" height="38" rx="2" ry="2" transform="translate(64 82) rotate(-180)" width="28" x="18" y="22"/><polygon class="cls-2" points="42 38.5 34.5 38.5 34.5 31 29.5 31 29.5 38.5 22 38.5 22 43.5 29.5 43.5 29.5 51 34.5 51 34.5 43.5 42 43.5 42 38.5"/><path class="cls-3" d="M25,16H39a0,0,0,0,1,0,0v4a2,2,0,0,1-2,2H27a2,2,0,0,1-2-2V16A0,0,0,0,1,25,16Z" transform="translate(64 38) rotate(-180)"/><rect class="cls-3" height="6" transform="translate(64 26) rotate(-180)" width="8" x="28" y="10"/><rect class="cls-4" height="6" transform="translate(64 14) rotate(-180)" width="4" x="30" y="4"/><path class="cls-5" d="M16,10l1.3416-2.6833A6,6,0,0,1,22.7082,4H40"/></svg>